<?xml version="1.0" encoding="utf-8"?>
<!-- Generator: Adobe Illustrator 19.0.0, SVG Export Plug-In . SVG Version: 6.00 Build 0)  -->
<svg version="1.1" baseProfile="tiny" id="Capa_1" xmlns="http://www.w3.org/2000/svg" xmlns:xlink="http://www.w3.org/1999/xlink"
	 x="0px" y="0px" viewBox="0 0 256 256" xml:space="preserve">
<g id="XMLID_4_">
	<path id="XMLID_78_" fill="#FDFDFD" d="M257,129.5c0,41.3,0,82.7,0.1,124c0,3-0.6,3.6-3.6,3.6c-83-0.1-166-0.1-249,0
		c-3,0-3.6-0.6-3.6-3.6c0.1-83,0.1-166,0-249c0-3,0.6-3.6,3.6-3.6c83,0.1,166,0.1,249,0c3,0,3.6,0.6,3.6,3.6
		C257,46.2,257,87.8,257,129.5z M82.8,68.6c-2.4,2.7-4.3,5.6-5,9.3c2.4-1.6,4.1-3.6,5.5-6c1.7-2.7,3.9-5,6.4-6.8
		C104.6,53.9,121.1,47,140,46.9c4.4,0.6,8.9,1,13.3,1.7c13.1,2.3,24.2,8.6,34.6,16.6c13.6,12.8,22,28.4,24.7,46.9
		c0.9,5.9,0.4,11.9,0.3,17.8c-0.7,3.4-1.4,6.8-2.3,10.1c-4.3,16-13.1,29.1-25.8,39.7c-12.6,8.9-26.2,15.1-41.9,16
		c15.1,1.5,29.5-0.8,43-7.9c2.1-0.4,3.6-1.9,5.4-2.9c10.3-6,19.4-13.4,25.5-24c9.5-12.2,13.8-26.4,14.7-41.5
		c1.1-18.9-3.4-36.5-15.5-51.7c-6.2-10.7-15.3-18.2-26-24c-2.3-2.4-5.4-3.2-8.3-4.3c-13.4-5.5-27.3-8.1-41.8-5.6
		c-5.2,0.1-10.2,1.4-15.1,3.1C107.4,42.9,92.9,52.8,82.8,68.6z M88.9,198.2c0.8,0.6,1.6,1.2,2.5,1.6c17.6,8.7,36.3,11.8,55.7,9.8
		c6.9-0.7,13.9-1.9,21.7-5.6c-8.9-0.3-16.3,1.2-23.8,0.7c-12.6-1-24.4-4.7-35.8-9.8c-1.1-0.7-2.2-1.4-3.4-2
		c-8.2-4-14.9-10.1-21-16.5c-6-6.2-10.7-13.7-14.9-21.5c-6.2-13.3-9.3-27.3-9.5-42c0.3-10.6,3-20.8,5.7-31c0.9-1.6,1.7-3.2,2.6-4.8
		c3.3-5.9,5.9-12.4,10.1-17.6C84.4,52.6,91,46.6,98,41c0.7-0.4,1.5-0.7,2.2-1.2c20.3-13.2,42.3-18.2,66.4-14.1
		c10.4,1.8,19.7,6.2,29.2,10.4c0.8,0.6,1.5,1.4,2.4,1.7c2.3,0.8,4.6,4.9,6.4,2.6c1.2-1.5-2.8-4-5.1-5.5c-6.1-4.1-12-8.4-18.4-12.2
		c-8.6-5.1-18-6.9-27.2-9.4c-9.8-2.7-20-2.6-30.2-1.2c-21.6,3-40.6,11.4-56.3,26.8C54.4,50.6,45.6,65,40.9,82
		c-3.8,10-4.8,20.4-4.3,31c-0.1,15.3,3.6,29.7,10.9,43.2C56.7,174.7,70.5,188.7,88.9,198.2z M27.8,185.4
		c7.7,15.1,18.5,27.5,32.2,37.4c17.4,13.5,37.1,21,59,23.1c19,2.2,37.4-0.3,55-7.9c29.1-11.4,50.2-31.5,63.4-59.7
		c12.8-27.4,14.4-78.1,3-87.3c-0.1,0.5-0.4,0.9-0.4,1.3c5.1,26.9-0.2,51.9-14.3,75c-12.5,20.6-30.7,34.7-52.8,43.8
		c-2.9,0.9-5.7,1.7-8.6,2.6c-14.6,4.3-29.4,4.8-44.4,3.3c-1.6-0.4-3.2-0.9-4.8-1.1c-12.2-1.8-23.7-6.3-34.2-12.4
		c-7.1-4.1-14.1-8.9-19.8-15.1c-5-5.7-10.6-11-14.6-17.5c-6.8-10.9-12.5-22.4-15.6-35c0-0.7,0.1-1.3-0.1-2
		c-6.8-33.1,0.3-62.9,20.8-89.7c0.6-0.8,1.9-1.5,1.1-3.1c-1.9,0.1-2.7,1.6-3.7,2.7C21,72.2,9.2,106.1,14.3,145.7
		C16.1,159.8,20.3,173.2,27.8,185.4z"/>
	<path id="XMLID_77_" fill="#064B87" d="M173,211.2c22.1-9.1,40.3-23.2,52.8-43.8c14.1-23.2,19.3-48.2,14.3-75
		c-0.1-0.4,0.2-0.9,0.4-1.3c11.4,9.1,9.8,59.9-3,87.3c-13.2,28.2-34.3,48.3-63.4,59.7C172,229.1,173.5,220.1,173,211.2z"/>
	<path id="XMLID_76_" fill="#027BBA" d="M61.2,188.5c5.7,6.3,12.8,11,19.8,15.1c10.5,6.1,21.9,10.6,34.2,12.4
		c1.6,0.2,3.2,0.8,4.8,1.1c-0.6,9.6,1.1,19.2-1,28.7c-21.9-2.1-41.6-9.6-59-23.1c1.1-4.1,1-8.2,1-12.4
		C61,203.1,61.1,195.8,61.2,188.5z"/>
	<path id="XMLID_75_" fill="#E42316" d="M195.8,36.1c-9.5-4.2-18.8-8.6-29.2-10.4c-24.1-4.1-46.1,0.9-66.4,14.1
		c-0.7,0.4-1.4,0.8-2.2,1.2c-6.7-1.9-13.6-0.6-20.3-1c-3.4-0.2-7,0.7-10.3-1.2C83.2,23.4,102.1,15,123.7,12
		c10.2-1.4,20.4-1.5,30.2,1.2c9.2,2.5,18.6,4.4,27.2,9.4c6.4,3.8,12.3,8.1,18.4,12.2C198.3,35.2,197,35.7,195.8,36.1z"/>
	<path id="XMLID_74_" fill="#059CDE" d="M27.8,185.4c-7.5-12.2-11.7-25.7-13.5-39.8C9.2,106.1,21,72.2,49.1,44
		c1.1-1.1,1.9-2.7,3.7-2.7c0.8,1.6-0.5,2.3-1.1,3.1C31.2,71.1,24.1,100.9,30.9,134c0.1,0.6,0,1.3,0.1,2c-3,0.7-1.9,3.1-1.9,4.9
		C28.4,155.7,30.3,170.6,27.8,185.4z"/>
	<path id="XMLID_73_" fill="#03629F" d="M119,245.9c2.1-9.5,0.4-19.2,1-28.7c15,1.5,29.9,1,44.4-3.3c2.9-0.8,5.7-1.7,8.6-2.6
		c0.4,8.9-1.1,17.9,1,26.8C156.4,245.6,138,248.1,119,245.9z"/>
	<path id="XMLID_72_" fill="#0395D7" d="M27.8,185.4c2.5-14.8,0.6-29.7,1.2-44.6c0.1-1.8-1.1-4.2,1.9-4.9c3.1,12.6,8.8,24.1,15.6,35
		c4,6.5,9.6,11.7,14.6,17.5c-0.1,7.3-0.2,14.6-0.2,22c0,4.1,0.1,8.3-1,12.4C46.3,212.9,35.5,200.5,27.8,185.4z"/>
	<path id="XMLID_71_" fill="#E84E11" d="M67.5,38.8c3.2,1.9,6.8,1,10.3,1.2c6.8,0.4,13.6-0.9,20.3,1c-7,5.5-13.7,11.6-19.2,18.6
		c-4.2,5.2-6.8,11.7-10.1,17.6c-0.9,1.6-1.7,3.2-2.6,4.8c-8.4,0-16.8,0-25.2,0C45.6,65,54.4,50.6,67.5,38.8z"/>
	<path id="XMLID_70_" fill="#2D9333" d="M216.1,67.9c12.1,15.2,16.6,32.7,15.5,51.7c-0.8,15.1-5.2,29.3-14.7,41.5
		c-2.4-0.4-1.8-2.4-1.9-3.9c-0.1-4.4,0-8.9,0-13.3c-0.1-4.7,0.7-9.5-2-13.8c0-5.9,0.6-11.9-0.3-17.8c2-2.6,2.4-5.6,2.4-8.7
		c0-9.8,0-19.5,0-29.3C215,72,214.9,69.8,216.1,67.9z"/>
	<path id="XMLID_69_" fill="#F49E03" d="M47.6,156.2c-7.4-13.4-11-27.8-10.9-43.2c7.9,0,15.8,0,23.8,0c0.2,14.7,3.3,28.7,9.5,42
		C62.5,157.1,55,155.4,47.6,156.2z"/>
	<path id="XMLID_68_" fill="#FBBF04" d="M47.6,156.2c7.4-0.8,15,0.9,22.3-1.1c4.1,7.7,8.9,15.3,14.9,21.5c6.1,6.3,12.8,12.5,21,16.5
		c1.2,0.6,2.2,1.3,3.4,2c-4.5,2.6-9.4,2-14.3,2.1c-2,0.1-4.3-0.9-5.9,1.2C70.5,188.7,56.7,174.7,47.6,156.2z"/>
	<path id="XMLID_67_" fill="#7FAF28" d="M140,33.9c14.5-2.5,28.4,0.1,41.8,5.6c2.8,1.2,6,1.9,8.3,4.3c-1.3,2.1-1,4.4-1.1,6.7
		c-0.1,4.9,0.7,9.9-1.1,14.7c-10.4-8-21.5-14.3-34.6-16.6c-4.4-0.8-8.9-1.2-13.3-1.7C140,42.6,140,38.2,140,33.9z"/>
	<path id="XMLID_66_" fill="#489B30" d="M187.9,65.2c1.7-4.8,0.9-9.8,1.1-14.7c0.1-2.3-0.2-4.6,1.1-6.7c10.7,5.8,19.8,13.3,26,24
		c-1.2,1.9-1.1,4.1-1.1,6.3c0,9.8,0,19.5,0,29.3c0,3.1-0.4,6.2-2.4,8.7C209.9,93.6,201.5,78,187.9,65.2z"/>
	<path id="XMLID_65_" fill="#EF8002" d="M60.4,113c-7.9,0-15.8,0-23.8,0c-0.5-10.6,0.5-21,4.3-31c8.4,0,16.8,0,25.2,0
		C63.4,92.2,60.7,102.4,60.4,113z"/>
	<path id="XMLID_64_" fill="#489B30" d="M213,130c2.7,4.3,2,9.1,2,13.8c0.1,4.4,0,8.9,0,13.3c0,1.5-0.6,3.5,1.9,3.9
		c-6.1,10.5-15.2,18-25.5,24c-1.7,1-3.3,2.5-5.4,2.9c-0.9-2.6-1.1-5.3-1.1-8.1c12.7-10.6,21.5-23.7,25.8-39.7
		C211.6,136.8,212.2,133.4,213,130z"/>
	<path id="XMLID_63_" fill="#B3C607" d="M140,33.9c0,4.3,0,8.7,0,13c-18.9,0.1-35.4,7-50.3,18.2c-2.5,1.9-4.7,4.2-6.4,6.8
		c-0.2-1.1-0.3-2.2-0.5-3.3c10.1-15.8,24.6-25.7,42.1-31.7C129.8,35.3,134.8,34,140,33.9z"/>
	<path id="XMLID_62_" fill="#FED708" d="M88.9,198.2c1.6-2.1,3.9-1.2,5.9-1.2c4.9-0.1,9.8,0.5,14.3-2.1c11.4,5.1,23.2,8.8,35.8,9.8
		c7.5,0.6,14.9-1,23.8-0.7c-7.8,3.7-14.7,4.9-21.7,5.6c-19.4,2-38.1-1.1-55.7-9.8C90.5,199.4,89.7,198.8,88.9,198.2z"/>
	<path id="XMLID_61_" fill="#7FAF28" d="M184.9,179.8c0,2.8,0.2,5.5,1.1,8.1c-13.5,7.2-27.8,9.5-43,7.9
		C158.7,194.9,172.3,188.7,184.9,179.8z"/>
	<path id="XMLID_60_" fill="#E84E11" d="M195.8,36.1c1.2-0.4,2.4-0.9,3.7-1.3c2.3,1.5,6.3,4,5.1,5.5c-1.8,2.4-4.1-1.8-6.4-2.6
		C197.3,37.5,196.6,36.7,195.8,36.1z"/>
	<path id="XMLID_59_" fill="#FED708" d="M82.8,68.6c0.2,1.1,0.3,2.2,0.5,3.3c-1.4,2.4-3.2,4.4-5.5,6C78.5,74.3,80.5,71.3,82.8,68.6z
		"/>
</g>
</svg>
